<?xml version="1.0" encoding="UTF-8" standalone="no"?>
<!-- Created with Inkscape (http://www.inkscape.org/) -->

<svg
   width="100"
   height="140"
   viewBox="0 0 100 140"
   version="1.1"
   id="svg1"
   inkscape:version="1.4.3 (0d15f75042, 2025-12-25)"
   sodipodi:docname="Template.svg"
   inkscape:export-filename="card_back.png"
   inkscape:export-xdpi="300"
   inkscape:export-ydpi="300"
   xmlns:inkscape="http://www.inkscape.org/namespaces/inkscape"
   xmlns:sodipodi="http://sodipodi.sourceforge.net/DTD/sodipodi-0.dtd"
   xmlns:xlink="http://www.w3.org/1999/xlink"
   xmlns="http://www.w3.org/2000/svg"
   xmlns:svg="http://www.w3.org/2000/svg">
  <sodipodi:namedview
     id="namedview1"
     pagecolor="#505050"
     bordercolor="#eeeeee"
     borderopacity="1"
     inkscape:showpageshadow="0"
     inkscape:pageopacity="0"
     inkscape:pagecheckerboard="0"
     inkscape:deskcolor="#505050"
     inkscape:document-units="px"
     inkscape:zoom="4"
     inkscape:cx="40.375"
     inkscape:cy="79.125"
     inkscape:window-width="2048"
     inkscape:window-height="1124"
     inkscape:window-x="0"
     inkscape:window-y="0"
     inkscape:window-maximized="1"
     inkscape:current-layer="layer1"
     showguides="true">
    <sodipodi:guide
       position="50,161.75"
       orientation="-1,0"
       id="guide5"
       inkscape:locked="false"
       inkscape:label=""
       inkscape:color="rgb(0,134,229)" />
    <sodipodi:guide
       position="77.380799,135"
       orientation="0,1"
       id="guide7"
       inkscape:locked="false"
       inkscape:label=""
       inkscape:color="rgb(0,134,229)" />
    <sodipodi:guide
       position="120,5"
       orientation="0,1"
       id="guide8"
       inkscape:locked="false"
       inkscape:label=""
       inkscape:color="rgb(0,134,229)" />
    <sodipodi:guide
       position="5,152"
       orientation="-1,0"
       id="guide9"
       inkscape:locked="false"
       inkscape:label=""
       inkscape:color="rgb(0,134,229)" />
    <sodipodi:guide
       position="95,70"
       orientation="-1,0"
       id="guide10"
       inkscape:locked="false"
       inkscape:label=""
       inkscape:color="rgb(0,134,229)" />
    <sodipodi:guide
       position="46.89433,70"
       orientation="0,1"
       id="guide11"
       inkscape:locked="false"
       inkscape:label=""
       inkscape:color="rgb(0,134,229)" />
  </sodipodi:namedview>
  <defs
     id="defs1">
    <pattern
       inkscape:collect="always"
       xlink:href="#pattern34-30"
       preserveAspectRatio="none"
       id="pattern28"
       patternTransform="matrix(1.5,0,0,1.5,1100,535)"
       x="0"
       y="4" />
    <pattern
       patternUnits="userSpaceOnUse"
       width="10"
       height="10"
       patternTransform="translate(1100,535) scale(2)"
       preserveAspectRatio="xMidYMid"
       style="fill:#000000"
       id="pattern34-30"
       inkscape:label="Circle fill 4"
       inkscape:collect="always"
       inkscape:isstock="true">
      <path
         id="path34-4"
         style="paint-order:stroke markers fill;stop-color:#000000"
         d="m 10,9.99997 -5,-2e-5 C 8,9.99997 10,7.99999 10,5 Z m -5,-5 h 5 c -3,0 -5,2 -5,5 z m 0,0 -5,2e-5 c 3,-2e-5 5,1.99996 5,4.99995 z m -5,5 h 5 c -3,0 -5,-2 -5,-5 z M 10,0 5,2e-5 C 8,0 10,1.99998 10,4.99997 Z M 5,5 h 5 C 7,5 5,3 5,0 Z m 0,0 -5,-2e-5 C 3,5 5,3.00002 5,3e-5 Z M 0,0 H 5 C 2,0 0,2 0,5 Z" />
    </pattern>
    <rect
       x="56.288658"
       y="58.762886"
       width="43.092785"
       height="31.958763"
       id="rect4" />
    <rect
       x="41.237114"
       y="28.659794"
       width="28.659794"
       height="28.865978"
       id="rect3" />
    <rect
       x="41.03093"
       y="30.515465"
       width="24.742268"
       height="24.123711"
       id="rect2" />
    <rect
       x="41.237114"
       y="28.659794"
       width="28.659794"
       height="28.865978"
       id="rect3-0" />
    <rect
       x="41.237114"
       y="28.659794"
       width="28.659794"
       height="28.865978"
       id="rect3-2" />
    <rect
       x="41.237114"
       y="28.659794"
       width="28.659794"
       height="28.865978"
       id="rect3-9" />
    <rect
       x="41.237114"
       y="28.659794"
       width="28.659794"
       height="28.865978"
       id="rect5" />
    <rect
       x="41.237114"
       y="28.659794"
       width="28.659794"
       height="28.865978"
       id="rect13" />
    <rect
       x="41.237114"
       y="28.659794"
       width="28.659794"
       height="28.865978"
       id="rect6" />
    <rect
       x="41.237114"
       y="28.659794"
       width="28.659794"
       height="28.865978"
       id="rect7" />
    <rect
       x="41.237114"
       y="28.659794"
       width="28.659794"
       height="28.865978"
       id="rect8" />
    <rect
       x="41.237114"
       y="28.659794"
       width="28.659794"
       height="28.865978"
       id="rect14" />
    <rect
       x="41.237114"
       y="28.659794"
       width="28.659794"
       height="28.865978"
       id="rect15" />
    <rect
       x="41.237114"
       y="28.659794"
       width="28.659794"
       height="28.865978"
       id="rect16" />
    <rect
       x="41.237114"
       y="28.659794"
       width="28.659794"
       height="28.865978"
       id="rect17" />
    <rect
       x="41.237114"
       y="28.659794"
       width="28.659794"
       height="28.865978"
       id="rect18" />
    <rect
       x="41.237114"
       y="28.659794"
       width="28.659794"
       height="28.865978"
       id="rect19" />
    <rect
       x="41.237114"
       y="28.659794"
       width="28.659794"
       height="28.865978"
       id="rect20" />
    <rect
       x="41.237114"
       y="28.659794"
       width="28.659794"
       height="28.865978"
       id="rect21" />
    <rect
       x="41.237114"
       y="28.659794"
       width="28.659794"
       height="28.865978"
       id="rect24" />
    <rect
       x="41.237114"
       y="28.659794"
       width="28.659794"
       height="28.865978"
       id="rect25" />
    <rect
       x="41.237114"
       y="28.659794"
       width="28.659794"
       height="28.865978"
       id="rect26" />
    <rect
       x="41.237114"
       y="28.659794"
       width="28.659794"
       height="28.865978"
       id="rect27" />
    <rect
       x="41.237114"
       y="28.659794"
       width="28.659794"
       height="28.865978"
       id="rect32" />
    <rect
       x="41.237114"
       y="28.659794"
       width="28.659794"
       height="28.865978"
       id="rect33" />
    <rect
       x="41.237114"
       y="28.659794"
       width="28.659794"
       height="28.865978"
       id="rect34" />
    <rect
       x="41.237114"
       y="28.659794"
       width="28.659794"
       height="28.865978"
       id="rect35" />
    <rect
       x="41.237114"
       y="28.659794"
       width="28.659794"
       height="28.865978"
       id="rect38" />
  </defs>
  <g
     inkscape:label="Layer 1"
     inkscape:groupmode="layer"
     id="layer1"
     transform="translate(-6.2846033e-7,-25.979382)">
    <rect
       style="display:none;fill:#ffffff;stroke-width:3.951;stroke-dasharray:none;stroke-opacity:0.0659504;paint-order:fill markers stroke"
       id="rect1"
       width="100"
       height="140"
       x="6.2846033e-07"
       y="25.979382"
       rx="0"
       ry="140" />
    <text
       xml:space="preserve"
       id="text4"
       style="font-style:normal;font-variant:normal;font-weight:normal;font-stretch:normal;font-size:13.3333px;font-family:'Noto Music';-inkscape-font-specification:'Noto Music';writing-mode:lr-tb;direction:ltr;white-space:pre;shape-inside:url(#rect4);display:inline;fill:#1a1a1a;stroke-width:3.279;stroke-opacity:0.0659504"
       transform="translate(-38.556701,0.41237113)" />
    <rect
       style="display:none;fill:#00ffff;stroke:#000000;stroke-width:2.91639;stroke-dasharray:none;stroke-opacity:1"
       id="rect9"
       width="127.07098"
       height="86.114822"
       x="47.201744"
       y="-81.580513"
       ry="3.8716483"
       transform="matrix(-0.00623789,0.99998054,-0.999996,-0.00283,0,0)" />
    <rect
       style="fill:#ffffff;fill-opacity:1;stroke:#000000;stroke-width:0.501976;stroke-dasharray:none;stroke-opacity:1"
       id="rect11"
       width="99.430145"
       height="139.44914"
       x="0.26617384"
       y="26.242807"
       ry="2.6826305" />
    <rect
       style="display:none;fill:url(#pattern28);stroke:#000000;stroke-width:0.498798;stroke-dasharray:none;stroke-opacity:1"
       id="rect12"
       width="89.498604"
       height="129.51707"
       x="5.2443228"
       y="31.210739"
       ry="1.5499195" />
  </g>
</svg>
